<?xml version="1.0" standalone="no"?>
<!DOCTYPE svg PUBLIC "-//W3C//DTD SVG 20010904//EN"
 "http://www.w3.org/TR/2001/REC-SVG-20010904/DTD/svg10.dtd">
<svg version="1.0" xmlns="http://www.w3.org/2000/svg"
 width="640.000000pt" height="640.000000pt" viewBox="0 0 640.000000 640.000000"
 preserveAspectRatio="xMidYMid meet">
<metadata>
Created by potrace 1.11, written by Peter Selinger 2001-2013
</metadata>
<g transform="translate(0.000000,640.000000) scale(0.100000,-0.100000)"
fill="#000000" stroke="none">
<path d="M0 3200 l0 -3200 3200 0 3200 0 0 3200 0 3200 -3200 0 -3200 0 0
-3200z m3965 1502 c236 -45 378 -114 510 -247 131 -131 190 -254 201 -423 16
-217 -79 -433 -253 -577 -64 -52 -193 -125 -273 -154 l-35 -12 118 -39 c138
-46 213 -84 293 -149 326 -262 352 -762 56 -1082 -153 -166 -358 -267 -632
-313 -188 -31 -355 -36 -1236 -36 l-884 0 0 209 0 209 128 4 c144 5 192 20
220 72 16 28 17 108 20 991 2 528 0 984 -3 1013 -13 109 -75 142 -265 142
l-100 0 0 211 0 210 1013 -4 c982 -4 1015 -4 1122 -25z"/>
<path d="M2960 3865 l0 -377 293 5 c314 5 379 14 479 61 81 38 133 88 170 164
31 62 33 74 32 162 0 74 -5 105 -22 142 -28 63 -86 125 -145 155 -92 46 -159
54 -494 60 l-313 5 0 -377z"/>
<path d="M2960 2654 c0 -392 5 -449 37 -475 25 -22 543 -19 640 3 102 24 175
63 237 128 93 98 134 214 123 348 -16 189 -127 307 -337 357 -61 15 -133 19
-387 23 l-313 4 0 -388z"/>
</g>
</svg>
